<svg width="108" height="43" viewBox="0 0 108 43" fill="none" xmlns="http://www.w3.org/2000/svg">
<g filter="url(#filter0_d_1_288)">
<path d="M14.692 1.526V3.92H10.93V14H8.122V3.92H4.36V1.526H14.692ZM16.3166 14V0.463999L18.9986 0.0319996V4.568C19.1786 4.508 19.4066 4.454 19.6826 4.406C19.9706 4.346 20.2466 4.316 20.5106 4.316C21.2786 4.316 21.9146 4.424 22.4186 4.64C22.9346 4.844 23.3426 5.138 23.6426 5.522C23.9546 5.906 24.1706 6.362 24.2906 6.89C24.4226 7.418 24.4886 8.006 24.4886 8.654V14H21.8066V8.978C21.8066 8.114 21.6926 7.502 21.4646 7.142C21.2486 6.782 20.8406 6.602 20.2406 6.602C20.0006 6.602 19.7726 6.626 19.5566 6.674C19.3526 6.71 19.1666 6.752 18.9986 6.8V14H16.3166ZM26.4663 9.338C26.4663 8.498 26.5923 7.766 26.8442 7.142C27.1083 6.506 27.4503 5.978 27.8703 5.558C28.2903 5.138 28.7703 4.82 29.3103 4.604C29.8623 4.388 30.4263 4.28 31.0023 4.28C32.3463 4.28 33.4083 4.694 34.1883 5.522C34.9683 6.338 35.3583 7.544 35.3583 9.14C35.3583 9.296 35.3523 9.47 35.3403 9.662C35.3283 9.842 35.3163 10.004 35.3043 10.148H29.2203C29.2803 10.7 29.5383 11.138 29.9943 11.462C30.4503 11.786 31.0623 11.948 31.8303 11.948C32.3223 11.948 32.8023 11.906 33.2703 11.822C33.7503 11.726 34.1403 11.612 34.4403 11.48L34.8003 13.658C34.6563 13.73 34.4643 13.802 34.2243 13.874C33.9843 13.946 33.7143 14.006 33.4143 14.054C33.1263 14.114 32.8143 14.162 32.4783 14.198C32.1423 14.234 31.8063 14.252 31.4703 14.252C30.6183 14.252 29.8743 14.126 29.2383 13.874C28.6143 13.622 28.0923 13.28 27.6723 12.848C27.2643 12.404 26.9583 11.882 26.7543 11.282C26.5623 10.682 26.4663 10.034 26.4663 9.338ZM32.7663 8.312C32.7543 8.084 32.7123 7.862 32.6403 7.646C32.5803 7.43 32.4783 7.238 32.3343 7.07C32.2023 6.902 32.0283 6.764 31.8123 6.656C31.6083 6.548 31.3503 6.494 31.0383 6.494C30.7383 6.494 30.4803 6.548 30.2643 6.656C30.0483 6.752 29.8683 6.884 29.7243 7.052C29.5803 7.22 29.4663 7.418 29.3823 7.646C29.3103 7.862 29.2563 8.084 29.2203 8.312H32.7663ZM9.598 34.162C8.914 34.162 8.23 34.138 7.546 34.09C6.874 34.054 6.172 33.958 5.44 33.802V21.706C6.016 21.598 6.646 21.52 7.33 21.472C8.014 21.412 8.65 21.382 9.238 21.382C10.03 21.382 10.756 21.442 11.416 21.562C12.088 21.67 12.664 21.862 13.144 22.138C13.624 22.414 13.996 22.78 14.26 23.236C14.536 23.68 14.674 24.232 14.674 24.892C14.674 25.888 14.194 26.674 13.234 27.25C14.026 27.55 14.566 27.958 14.854 28.474C15.142 28.99 15.286 29.572 15.286 30.22C15.286 31.528 14.806 32.512 13.846 33.172C12.898 33.832 11.482 34.162 9.598 34.162ZM8.176 28.564V31.786C8.38 31.81 8.602 31.828 8.842 31.84C9.082 31.852 9.346 31.858 9.634 31.858C10.474 31.858 11.152 31.738 11.668 31.498C12.184 31.258 12.442 30.814 12.442 30.166C12.442 29.59 12.226 29.182 11.794 28.942C11.362 28.69 10.744 28.564 9.94 28.564H8.176ZM8.176 26.422H9.544C10.408 26.422 11.026 26.314 11.398 26.098C11.77 25.87 11.956 25.51 11.956 25.018C11.956 24.514 11.764 24.16 11.38 23.956C10.996 23.752 10.432 23.65 9.688 23.65C9.448 23.65 9.19 23.656 8.914 23.668C8.638 23.668 8.392 23.68 8.176 23.704V26.422ZM23.0598 26.908C22.8198 26.848 22.5378 26.788 22.2138 26.728C21.8898 26.656 21.5418 26.62 21.1698 26.62C21.0018 26.62 20.7978 26.638 20.5578 26.674C20.3298 26.698 20.1558 26.728 20.0358 26.764V34H17.3538V25.036C17.8338 24.868 18.3978 24.712 19.0458 24.568C19.7058 24.412 20.4378 24.334 21.2418 24.334C21.3858 24.334 21.5598 24.346 21.7638 24.37C21.9678 24.382 22.1718 24.406 22.3758 24.442C22.5798 24.466 22.7838 24.502 22.9878 24.55C23.1918 24.586 23.3658 24.634 23.5098 24.694L23.0598 26.908ZM24.3217 29.338C24.3217 28.498 24.4477 27.766 24.6997 27.142C24.9637 26.506 25.3057 25.978 25.7257 25.558C26.1457 25.138 26.6257 24.82 27.1657 24.604C27.7177 24.388 28.2817 24.28 28.8577 24.28C30.2017 24.28 31.2637 24.694 32.0437 25.522C32.8237 26.338 33.2137 27.544 33.2137 29.14C33.2137 29.296 33.2077 29.47 33.1957 29.662C33.1837 29.842 33.1717 30.004 33.1597 30.148H27.0757C27.1357 30.7 27.3937 31.138 27.8497 31.462C28.3057 31.786 28.9177 31.948 29.6857 31.948C30.1777 31.948 30.6577 31.906 31.1257 31.822C31.6057 31.726 31.9957 31.612 32.2957 31.48L32.6557 33.658C32.5117 33.73 32.3197 33.802 32.0797 33.874C31.8397 33.946 31.5697 34.006 31.2697 34.054C30.9817 34.114 30.6697 34.162 30.3337 34.198C29.9977 34.234 29.6617 34.252 29.3257 34.252C28.4737 34.252 27.7297 34.126 27.0937 33.874C26.4697 33.622 25.9477 33.28 25.5277 32.848C25.1197 32.404 24.8137 31.882 24.6097 31.282C24.4177 30.682 24.3217 30.034 24.3217 29.338ZM30.6217 28.312C30.6097 28.084 30.5677 27.862 30.4957 27.646C30.4357 27.43 30.3337 27.238 30.1897 27.07C30.0577 26.902 29.8837 26.764 29.6677 26.656C29.4637 26.548 29.2057 26.494 28.8937 26.494C28.5937 26.494 28.3357 26.548 28.1197 26.656C27.9037 26.752 27.7237 26.884 27.5797 27.052C27.4357 27.22 27.3217 27.418 27.2377 27.646C27.1657 27.862 27.1117 28.084 27.0757 28.312H30.6217ZM38.9014 32.128C39.1654 32.128 39.4174 32.122 39.6574 32.11C39.8974 32.098 40.0894 32.08 40.2334 32.056V30.022C40.1254 29.998 39.9634 29.974 39.7474 29.95C39.5314 29.926 39.3334 29.914 39.1534 29.914C38.9014 29.914 38.6614 29.932 38.4334 29.968C38.2174 29.992 38.0254 30.046 37.8574 30.13C37.6894 30.214 37.5574 30.328 37.4614 30.472C37.3654 30.616 37.3174 30.796 37.3174 31.012C37.3174 31.432 37.4554 31.726 37.7314 31.894C38.0194 32.05 38.4094 32.128 38.9014 32.128ZM38.6854 24.28C39.4774 24.28 40.1374 24.37 40.6654 24.55C41.1934 24.73 41.6134 24.988 41.9254 25.324C42.2494 25.66 42.4774 26.068 42.6094 26.548C42.7414 27.028 42.8074 27.562 42.8074 28.15V33.73C42.4234 33.814 41.8894 33.91 41.2054 34.018C40.5214 34.138 39.6934 34.198 38.7214 34.198C38.1094 34.198 37.5514 34.144 37.0474 34.036C36.5554 33.928 36.1294 33.754 35.7694 33.514C35.4094 33.262 35.1334 32.938 34.9414 32.542C34.7494 32.146 34.6534 31.66 34.6534 31.084C34.6534 30.532 34.7614 30.064 34.9774 29.68C35.2054 29.296 35.5054 28.99 35.8774 28.762C36.2494 28.534 36.6754 28.372 37.1554 28.276C37.6354 28.168 38.1334 28.114 38.6494 28.114C38.9974 28.114 39.3034 28.132 39.5674 28.168C39.8434 28.192 40.0654 28.228 40.2334 28.276V28.024C40.2334 27.568 40.0954 27.202 39.8194 26.926C39.5434 26.65 39.0634 26.512 38.3794 26.512C37.9234 26.512 37.4734 26.548 37.0294 26.62C36.5854 26.68 36.2014 26.77 35.8774 26.89L35.5354 24.73C35.6914 24.682 35.8834 24.634 36.1114 24.586C36.3514 24.526 36.6094 24.478 36.8854 24.442C37.1614 24.394 37.4494 24.358 37.7494 24.334C38.0614 24.298 38.3734 24.28 38.6854 24.28ZM47.9147 27.952C48.1787 27.664 48.4487 27.364 48.7247 27.052C49.0127 26.74 49.2887 26.434 49.5527 26.134C49.8167 25.822 50.0627 25.528 50.2907 25.252C50.5307 24.976 50.7347 24.736 50.9027 24.532H54.0887C53.4527 25.264 52.8287 25.966 52.2167 26.638C51.6167 27.298 50.9567 27.982 50.2367 28.69C50.5967 29.014 50.9687 29.404 51.3527 29.86C51.7367 30.304 52.1087 30.766 52.4687 31.246C52.8287 31.726 53.1587 32.206 53.4587 32.686C53.7587 33.166 54.0107 33.604 54.2147 34H51.1367C50.9447 33.688 50.7227 33.346 50.4707 32.974C50.2307 32.59 49.9727 32.212 49.6967 31.84C49.4207 31.456 49.1267 31.09 48.8147 30.742C48.5147 30.394 48.2147 30.1 47.9147 29.86V34H45.2327V20.464L47.9147 20.032V27.952ZM57.2921 29.194C57.2921 30.022 57.4781 30.688 57.8501 31.192C58.2221 31.696 58.7741 31.948 59.5061 31.948C59.7461 31.948 59.9681 31.942 60.1721 31.93C60.3761 31.906 60.5441 31.882 60.6761 31.858V26.98C60.5081 26.872 60.2861 26.782 60.0101 26.71C59.7461 26.638 59.4761 26.602 59.2001 26.602C57.9281 26.602 57.2921 27.466 57.2921 29.194ZM63.3581 33.694C63.1181 33.766 62.8421 33.838 62.5301 33.91C62.2181 33.97 61.8881 34.024 61.5401 34.072C61.2041 34.12 60.8561 34.156 60.4961 34.18C60.1481 34.216 59.8121 34.234 59.4881 34.234C58.7081 34.234 58.0121 34.12 57.4001 33.892C56.7881 33.664 56.2721 33.34 55.8521 32.92C55.4321 32.488 55.1081 31.972 54.8801 31.372C54.6641 30.76 54.5561 30.076 54.5561 29.32C54.5561 28.552 54.6521 27.862 54.8441 27.25C55.0361 26.626 55.3121 26.098 55.6721 25.666C56.0321 25.234 56.4701 24.904 56.9861 24.676C57.5141 24.448 58.1141 24.334 58.7861 24.334C59.1581 24.334 59.4881 24.37 59.7761 24.442C60.0761 24.514 60.3761 24.616 60.6761 24.748V20.464L63.3581 20.032V33.694ZM69.4874 32.128C69.7514 32.128 70.0034 32.122 70.2434 32.11C70.4834 32.098 70.6754 32.08 70.8194 32.056V30.022C70.7114 29.998 70.5494 29.974 70.3334 29.95C70.1174 29.926 69.9194 29.914 69.7394 29.914C69.4874 29.914 69.2474 29.932 69.0194 29.968C68.8034 29.992 68.6114 30.046 68.4434 30.13C68.2754 30.214 68.1434 30.328 68.0474 30.472C67.9514 30.616 67.9034 30.796 67.9034 31.012C67.9034 31.432 68.0414 31.726 68.3174 31.894C68.6054 32.05 68.9954 32.128 69.4874 32.128ZM69.2714 24.28C70.0634 24.28 70.7234 24.37 71.2514 24.55C71.7794 24.73 72.1994 24.988 72.5114 25.324C72.8354 25.66 73.0634 26.068 73.1954 26.548C73.3274 27.028 73.3934 27.562 73.3934 28.15V33.73C73.0094 33.814 72.4754 33.91 71.7914 34.018C71.1074 34.138 70.2794 34.198 69.3074 34.198C68.6954 34.198 68.1374 34.144 67.6334 34.036C67.1414 33.928 66.7154 33.754 66.3554 33.514C65.9954 33.262 65.7194 32.938 65.5274 32.542C65.3354 32.146 65.2394 31.66 65.2394 31.084C65.2394 30.532 65.3474 30.064 65.5634 29.68C65.7914 29.296 66.0914 28.99 66.4634 28.762C66.8354 28.534 67.2614 28.372 67.7414 28.276C68.2214 28.168 68.7194 28.114 69.2354 28.114C69.5834 28.114 69.8894 28.132 70.1534 28.168C70.4294 28.192 70.6514 28.228 70.8194 28.276V28.024C70.8194 27.568 70.6814 27.202 70.4054 26.926C70.1294 26.65 69.6494 26.512 68.9654 26.512C68.5094 26.512 68.0594 26.548 67.6154 26.62C67.1714 26.68 66.7874 26.77 66.4634 26.89L66.1214 24.73C66.2774 24.682 66.4694 24.634 66.6974 24.586C66.9374 24.526 67.1954 24.478 67.4714 24.442C67.7474 24.394 68.0354 24.358 68.3354 24.334C68.6474 24.298 68.9594 24.28 69.2714 24.28ZM75.8186 24.856C76.2746 24.724 76.8626 24.604 77.5826 24.496C78.3026 24.376 79.0586 24.316 79.8506 24.316C80.6546 24.316 81.3206 24.424 81.8486 24.64C82.3886 24.844 82.8146 25.138 83.1266 25.522C83.4386 25.906 83.6606 26.362 83.7926 26.89C83.9246 27.418 83.9906 28.006 83.9906 28.654V34H81.3086V28.978C81.3086 28.114 81.1946 27.502 80.9666 27.142C80.7386 26.782 80.3126 26.602 79.6886 26.602C79.4966 26.602 79.2926 26.614 79.0766 26.638C78.8606 26.65 78.6686 26.668 78.5006 26.692V34H75.8186V24.856ZM85.9682 29.266C85.9682 28.582 86.0762 27.94 86.2922 27.34C86.5202 26.728 86.8442 26.2 87.2642 25.756C87.6842 25.3 88.1942 24.94 88.7942 24.676C89.3942 24.412 90.0782 24.28 90.8462 24.28C91.3502 24.28 91.8122 24.328 92.2322 24.424C92.6522 24.508 93.0602 24.634 93.4562 24.802L92.8982 26.944C92.6462 26.848 92.3702 26.764 92.0702 26.692C91.7702 26.62 91.4342 26.584 91.0622 26.584C90.2702 26.584 89.6762 26.83 89.2802 27.322C88.8962 27.814 88.7042 28.462 88.7042 29.266C88.7042 30.118 88.8842 30.778 89.2442 31.246C89.6162 31.714 90.2582 31.948 91.1702 31.948C91.4942 31.948 91.8422 31.918 92.2142 31.858C92.5862 31.798 92.9282 31.702 93.2402 31.57L93.6182 33.766C93.3062 33.898 92.9162 34.012 92.4482 34.108C91.9802 34.204 91.4642 34.252 90.9002 34.252C90.0362 34.252 89.2922 34.126 88.6682 33.874C88.0442 33.61 87.5282 33.256 87.1202 32.812C86.7242 32.368 86.4302 31.846 86.2382 31.246C86.0582 30.634 85.9682 29.974 85.9682 29.266ZM94.5112 29.338C94.5112 28.498 94.6372 27.766 94.8892 27.142C95.1532 26.506 95.4952 25.978 95.9152 25.558C96.3352 25.138 96.8152 24.82 97.3552 24.604C97.9072 24.388 98.4712 24.28 99.0472 24.28C100.391 24.28 101.453 24.694 102.233 25.522C103.013 26.338 103.403 27.544 103.403 29.14C103.403 29.296 103.397 29.47 103.385 29.662C103.373 29.842 103.361 30.004 103.349 30.148H97.2652C97.3252 30.7 97.5832 31.138 98.0392 31.462C98.4952 31.786 99.1072 31.948 99.8752 31.948C100.367 31.948 100.847 31.906 101.315 31.822C101.795 31.726 102.185 31.612 102.485 31.48L102.845 33.658C102.701 33.73 102.509 33.802 102.269 33.874C102.029 33.946 101.759 34.006 101.459 34.054C101.171 34.114 100.859 34.162 100.523 34.198C100.187 34.234 99.8512 34.252 99.5152 34.252C98.6632 34.252 97.9192 34.126 97.2832 33.874C96.6592 33.622 96.1372 33.28 95.7172 32.848C95.3092 32.404 95.0032 31.882 94.7992 31.282C94.6072 30.682 94.5112 30.034 94.5112 29.338ZM100.811 28.312C100.799 28.084 100.757 27.862 100.685 27.646C100.625 27.43 100.523 27.238 100.379 27.07C100.247 26.902 100.073 26.764 99.8572 26.656C99.6532 26.548 99.3952 26.494 99.0832 26.494C98.7832 26.494 98.5252 26.548 98.3092 26.656C98.0932 26.752 97.9132 26.884 97.7692 27.052C97.6252 27.22 97.5112 27.418 97.4272 27.646C97.3552 27.862 97.3012 28.084 97.2652 28.312H100.811Z" fill="white"/>
</g>
<defs>
<filter id="filter0_d_1_288" x="0.359985" y="0.0319824" width="107.043" height="42.22" filterUnits="userSpaceOnUse" color-interpolation-filters="sRGB">
<feFlood flood-opacity="0" result="BackgroundImageFix"/>
<feColorMatrix in="SourceAlpha" type="matrix" values="0 0 0 0 0 0 0 0 0 0 0 0 0 0 0 0 0 0 127 0" result="hardAlpha"/>
<feOffset dy="4"/>
<feGaussianBlur stdDeviation="2"/>
<feComposite in2="hardAlpha" operator="out"/>
<feColorMatrix type="matrix" values="0 0 0 0 0 0 0 0 0 0 0 0 0 0 0 0 0 0 0.25 0"/>
<feBlend mode="normal" in2="BackgroundImageFix" result="effect1_dropShadow_1_288"/>
<feBlend mode="normal" in="SourceGraphic" in2="effect1_dropShadow_1_288" result="shape"/>
</filter>
</defs>
</svg>
